<svg width="180" height="44" viewBox="0 0 180 44" fill="none" xmlns="http://www.w3.org/2000/svg">
<path d="M69.3764 17.9844H63.777C63.6747 17.2599 63.4659 16.6165 63.1506 16.054C62.8352 15.483 62.4304 14.9972 61.9361 14.5966C61.4418 14.196 60.8707 13.8892 60.223 13.6761C59.5838 13.4631 58.8892 13.3565 58.1392 13.3565C56.7841 13.3565 55.6037 13.6932 54.598 14.3665C53.5923 15.0312 52.8125 16.0028 52.2585 17.2812C51.7045 18.5511 51.4276 20.0937 51.4276 21.9091C51.4276 23.7756 51.7045 25.3437 52.2585 26.6136C52.821 27.8835 53.6051 28.8423 54.6108 29.4901C55.6165 30.1378 56.7798 30.4616 58.1009 30.4616C58.8423 30.4616 59.5284 30.3636 60.1591 30.1676C60.7983 29.9716 61.3651 29.6861 61.8594 29.3111C62.3537 28.9276 62.7628 28.4631 63.0866 27.9176C63.419 27.3722 63.6491 26.75 63.777 26.0511L69.3764 26.0767C69.2315 27.2784 68.8693 28.4375 68.2898 29.554C67.7188 30.6619 66.9474 31.6548 65.9759 32.5327C65.0128 33.402 63.8622 34.0923 62.5241 34.6037C61.1946 35.1065 59.6903 35.358 58.0114 35.358C55.6761 35.358 53.5881 34.8295 51.7472 33.7727C49.9148 32.7159 48.4659 31.1861 47.4006 29.1832C46.3438 27.1804 45.8153 24.7557 45.8153 21.9091C45.8153 19.054 46.3523 16.625 47.4261 14.6222C48.5 12.6193 49.9574 11.0937 51.7983 10.0455C53.6392 8.98864 55.7102 8.46023 58.0114 8.46023C59.5284 8.46023 60.9347 8.67329 62.2301 9.09943C63.5341 9.52557 64.6889 10.1477 65.6946 10.9659C66.7003 11.7756 67.5185 12.7685 68.1491 13.9446C68.7884 15.1207 69.1974 16.4673 69.3764 17.9844ZM79.9614 8.81818V35H74.4259V8.81818H79.9614ZM85.5957 35V8.81818H95.9253C97.9025 8.81818 99.59 9.17187 100.988 9.87926C102.394 10.5781 103.464 11.571 104.197 12.858C104.938 14.1364 105.309 15.6406 105.309 17.3707C105.309 19.1094 104.934 20.6051 104.184 21.858C103.434 23.1023 102.347 24.0568 100.924 24.7216C99.5091 25.3864 97.796 25.7188 95.7846 25.7188H88.8685V21.2699H94.8898C95.9466 21.2699 96.8244 21.125 97.5233 20.8352C98.2221 20.5455 98.742 20.1108 99.0829 19.5312C99.4324 18.9517 99.6071 18.2315 99.6071 17.3707C99.6071 16.5014 99.4324 15.7685 99.0829 15.1719C98.742 14.5753 98.2179 14.1236 97.5105 13.8168C96.8116 13.5014 95.9295 13.3438 94.8642 13.3438H91.1312V35H85.5957ZM99.7349 23.0852L106.242 35H100.131L93.7648 23.0852H99.7349ZM133.402 17.9844H127.802C127.7 17.2599 127.491 16.6165 127.176 16.054C126.86 15.483 126.456 14.9972 125.961 14.5966C125.467 14.196 124.896 13.8892 124.248 13.6761C123.609 13.4631 122.914 13.3565 122.164 13.3565C120.809 13.3565 119.629 13.6932 118.623 14.3665C117.617 15.0312 116.838 16.0028 116.284 17.2812C115.73 18.5511 115.453 20.0937 115.453 21.9091C115.453 23.7756 115.73 25.3437 116.284 26.6136C116.846 27.8835 117.63 28.8423 118.636 29.4901C119.642 30.1378 120.805 30.4616 122.126 30.4616C122.867 30.4616 123.554 30.3636 124.184 30.1676C124.823 29.9716 125.39 29.6861 125.885 29.3111C126.379 28.9276 126.788 28.4631 127.112 27.9176C127.444 27.3722 127.674 26.75 127.802 26.0511L133.402 26.0767C133.257 27.2784 132.894 28.4375 132.315 29.554C131.744 30.6619 130.973 31.6548 130.001 32.5327C129.038 33.402 127.887 34.0923 126.549 34.6037C125.22 35.1065 123.715 35.358 122.037 35.358C119.701 35.358 117.613 34.8295 115.772 33.7727C113.94 32.7159 112.491 31.1861 111.426 29.1832C110.369 27.1804 109.84 24.7557 109.84 21.9091C109.84 19.054 110.377 16.625 111.451 14.6222C112.525 12.6193 113.983 11.0937 115.823 10.0455C117.664 8.98864 119.735 8.46023 122.037 8.46023C123.554 8.46023 124.96 8.67329 126.255 9.09943C127.559 9.52557 128.714 10.1477 129.72 10.9659C130.725 11.7756 131.544 12.7685 132.174 13.9446C132.814 15.1207 133.223 16.4673 133.402 17.9844ZM138.451 35V8.81818H143.987V30.4361H155.211V35H138.451ZM159.957 35V8.81818H177.599V13.3821H165.492V19.6207H176.691V24.1847H165.492V30.4361H177.65V35H159.957Z" fill="#484848"/>
<circle cx="14" cy="22" r="11.25" stroke="white" stroke-width="5.5"/>
</svg>
